<?xml version="1.0" standalone="no"?>
<!DOCTYPE svg PUBLIC "-//W3C//DTD SVG 20010904//EN"
 "http://www.w3.org/TR/2001/REC-SVG-20010904/DTD/svg10.dtd">
<svg version="1.0" xmlns="http://www.w3.org/2000/svg"
 width="256.000000pt" height="256.000000pt" viewBox="0 0 256.000000 256.000000"
 preserveAspectRatio="xMidYMid meet">
<metadata>
Created by potrace 1.14, written by Peter Selinger 2001-2017
</metadata>
<g transform="translate(0.000000,256.000000) scale(0.100000,-0.100000)"
fill="#000000" stroke="none">
<path d="M469 2512 c-34 -17 -65 -44 -84 -71 l-30 -43 -3 -1106 c-2 -1006 -1
-1111 14 -1150 20 -54 76 -97 147 -112 37 -8 270 -10 782 -8 676 3 732 4 762
21 54 29 66 66 71 208 4 119 6 128 26 139 13 6 30 24 39 40 16 26 17 111 17
1019 0 848 -2 997 -15 1027 -27 66 4 64 -879 64 l-794 0 -53 -28z m281 -23
c-39 -26 -92 -50 -85 -37 20 33 40 48 69 48 24 0 28 -3 16 -11z m124 -8 c-18
-11 -47 -27 -65 -36 l-34 -17 40 35 c23 21 51 36 65 37 24 0 24 -1 -6 -19z
m141 6 c-40 -27 -120 -69 -110 -59 26 29 92 71 110 72 19 0 19 0 0 -13z m144
10 c-11 -10 -123 -69 -118 -63 21 23 87 65 103 66 11 0 17 -2 15 -3z m51 -53
c-119 -70 -130 -76 -130 -70 0 14 178 126 200 126 19 0 1 -15 -70 -56z m199
52 c-2 -2 -15 -9 -29 -15 -24 -11 -24 -11 -6 3 16 13 49 24 35 12z m170 0 c-3
-3 -104 -61 -394 -226 -74 -43 -21 -3 150 114 146 99 175 116 209 116 22 0 37
-2 35 -4z m96 -14 c-66 -40 -150 -85 -142 -76 17 18 143 93 157 94 8 0 2 -8
-15 -18z m105 -10 c-71 -44 -166 -96 -155 -85 20 22 170 113 185 113 8 0 -5
-13 -30 -28z m135 10 c-69 -42 -129 -75 -122 -67 16 18 122 83 137 84 8 1 2
-7 -15 -17z m165 10 c0 -4 -109 -70 -242 -147 -134 -76 -254 -146 -268 -154
-14 -8 -21 -11 -17 -5 5 5 115 77 245 161 209 134 282 172 282 145z m55 -61
c-6 -5 -113 -68 -240 -141 -262 -151 -252 -146 -244 -136 4 4 112 74 240 155
141 90 238 145 244 140 6 -6 6 -12 0 -18z m-355 -26 c0 -2 -10 -9 -22 -15 -22
-11 -22 -10 -4 4 21 17 26 19 26 11z m-170 -30 c0 -2 -10 -9 -22 -15 -22 -11
-22 -10 -4 4 21 17 26 19 26 11z m530 -69 c0 -3 -120 -76 -155 -94 -28 -15 12
15 72 53 64 41 83 50 83 41z m-886 -77 c-5 -8 -1 -8 14 0 11 6 40 11 63 11 36
0 40 -2 29 -16 -12 -13 -10 -14 13 -3 30 13 43 8 34 -14 -5 -12 -157 -107
-172 -107 -3 0 -5 32 -5 70 0 57 3 70 16 70 8 0 12 -5 8 -11z m-559 -63 c-16
-14 -43 -32 -60 -41 l-30 -17 25 22 c28 23 82 60 90 60 3 0 -8 -11 -25 -24z
m1439 5 c-5 -5 -65 -42 -134 -81 -150 -87 -148 -86 -135 -73 18 19 269 172
274 167 3 -2 0 -8 -5 -13z m-594 4 c0 -2 -10 -9 -22 -15 -22 -11 -22 -10 -4 4
21 17 26 19 26 11z m-650 -38 c-8 -8 -73 -53 -144 -101 -108 -73 -124 -81 -98
-51 16 20 78 65 138 100 114 67 128 74 104 52z m530 -21 c0 -18 -13 -34 -45
-57 -57 -41 -58 -48 -1 -15 l44 26 5 -26 c3 -20 -5 -33 -42 -65 l-46 -41 86
46 c55 29 98 46 120 46 l34 -1 -30 -27 c-17 -15 -53 -47 -80 -70 -47 -41 -48
-43 -12 -23 52 30 101 58 142 82 l35 21 0 -29 c0 -23 -13 -38 -77 -88 -42 -33
-89 -68 -105 -78 -26 -17 -28 -24 -28 -80 0 -49 -4 -65 -22 -85 l-23 -25 22
12 22 11 0 -122 0 -123 -37 -39 -37 -39 38 22 37 23 0 -28 c0 -16 -11 -40 -27
-58 l-28 -30 28 17 27 17 0 -32 c0 -21 -9 -42 -27 -61 -24 -25 -25 -28 -6 -18
32 16 33 15 33 -38 l0 -50 -82 1 c-46 0 -87 2 -91 5 -5 3 8 23 30 45 l38 40
-35 -21 c-19 -11 -38 -21 -42 -21 -17 0 -7 55 14 79 13 14 16 20 8 14 -43 -39
-41 29 3 75 l32 34 -32 -16 -33 -17 0 122 c0 101 3 126 17 141 16 18 16 18 0
12 -15 -5 -17 2 -17 53 l0 59 70 54 c39 29 73 57 77 63 5 9 -67 -30 -112 -60
-11 -7 -23 -13 -27 -13 -10 0 -10 60 0 60 4 1 30 21 57 46 50 45 37 44 -37 -3
-25 -15 -52 -23 -80 -23 l-43 1 55 50 c30 28 44 45 30 37 -91 -53 -177 -95
-187 -91 -24 9 -13 30 32 62 57 41 58 49 2 16 -24 -14 -46 -25 -50 -25 -6 0 3
142 10 150 2 2 8 -2 13 -10 7 -12 12 -12 22 -2 6 6 32 12 56 12 38 0 43 -2 32
-15 -22 -27 3 -15 130 60 69 40 128 74 133 74 4 1 7 -10 7 -23z m718 -91 c-3
-2 -453 -262 -473 -273 -6 -3 -6 -1 -2 4 5 5 113 75 240 156 169 107 233 143
235 132 2 -9 2 -17 0 -19z m-1658 22 c0 -2 -13 -13 -30 -25 -16 -13 -30 -18
-30 -13 0 6 12 17 28 25 29 17 32 18 32 13z m1370 -42 c0 -2 -10 -9 -22 -15
-22 -11 -22 -10 -4 4 21 17 26 19 26 11z m290 -49 c0 -7 -73 -55 -162 -106
-90 -52 -174 -100 -188 -109 -14 -8 -21 -11 -17 -5 7 7 356 231 365 233 1 1 2
-5 2 -13z m-1450 -30 c0 -2 -12 -11 -27 -20 l-28 -17 24 20 c23 21 31 25 31
17z m940 -66 c0 -29 -4 -40 -15 -40 -9 0 -12 6 -8 17 6 14 0 13 -30 -6 -23
-14 -48 -21 -69 -19 -33 3 -32 3 37 45 39 23 73 42 78 43 4 0 7 -18 7 -40z
m-890 26 c0 -2 -18 -15 -40 -30 -22 -14 -40 -23 -40 -19 0 5 17 18 38 30 40
24 42 25 42 19z m1399 -20 c-4 -3 -268 -156 -284 -164 -5 -3 -6 -1 -2 4 20 21
282 179 286 172 1 -5 1 -11 0 -12z m-1193 -5 c-3 -5 -67 -48 -141 -96 -91 -58
-140 -84 -146 -78 -7 7 39 39 138 96 158 92 157 92 149 78z m1194 -64 c0 -11
-65 -51 -355 -218 -87 -49 -19 -3 161 111 104 65 190 119 192 120 1 0 2 -6 2
-13z m-1691 -16 c-13 -11 -26 -17 -28 -15 -5 5 30 33 43 34 4 0 -2 -9 -15 -19z
m261 14 c0 -2 -10 -9 -22 -15 -22 -11 -22 -10 -4 4 21 17 26 19 26 11z m250
-19 c-17 -15 -287 -186 -295 -186 -3 0 -5 6 -5 13 1 9 292 186 310 187 2 0 -2
-6 -10 -14z m690 -31 c0 -2 -10 -9 -22 -15 -22 -11 -22 -10 -4 4 21 17 26 19
26 11z m490 -34 c0 -14 -53 -50 -212 -141 -117 -67 -229 -132 -248 -143 -19
-11 -31 -16 -27 -11 7 7 474 309 485 313 1 1 2 -8 2 -18z m-1690 -26 c-13 -14
-26 -22 -29 -19 -3 3 5 14 19 24 34 27 38 25 10 -5z m1390 10 c0 -2 -10 -9
-22 -15 -22 -11 -22 -10 -4 4 21 17 26 19 26 11z m300 -74 c0 -5 -69 -49 -152
-97 -84 -48 -164 -94 -178 -103 -14 -8 -21 -11 -17 -6 11 13 330 214 340 215
4 0 7 -4 7 -9z m0 -84 c0 -11 -110 -77 -414 -251 -28 -16 -48 -25 -43 -21 11
12 441 284 450 284 4 1 7 -5 7 -12z m-1700 -12 c-7 -9 -15 -13 -19 -10 -3 3 1
10 9 15 21 14 24 12 10 -5z m320 -10 c0 -2 -10 -9 -22 -15 -22 -11 -22 -10 -4
4 21 17 26 19 26 11z m-50 -29 c0 -2 -11 -11 -25 -20 -14 -9 -25 -13 -25 -8 0
5 10 14 23 20 27 13 27 13 27 8z m210 -1 c0 -2 -10 -9 -22 -15 -22 -11 -22
-10 -4 4 21 17 26 19 26 11z m185 -24 c-9 -8 -361 -232 -465 -296 l-45 -27 40
40 c23 24 130 93 255 166 210 122 234 135 215 117z m-240 -10 c-25 -23 -204
-129 -209 -123 -3 3 42 34 101 68 106 62 127 73 108 55z m775 -46 c0 -2 -10
-9 -22 -15 -22 -11 -22 -10 -4 4 21 17 26 19 26 11z m495 -4 c-16 -14 -105
-63 -105 -58 0 5 101 66 110 67 2 0 0 -4 -5 -9z m-1695 -86 c-7 -9 -15 -13
-19 -10 -3 3 1 10 9 15 21 14 24 12 10 -5z m520 -29 c0 -2 -40 -29 -89 -59
-254 -158 -256 -160 -230 -132 15 15 92 65 170 111 149 87 149 87 149 80z
m1180 0 c0 -2 -7 -7 -16 -10 -8 -3 -12 -2 -9 4 6 10 25 14 25 6z m-1 -80 c-4
-3 -268 -155 -284 -164 -7 -3 -7 -1 0 6 25 26 280 180 284 171 1 -6 1 -12 0
-13z m-1689 -41 c-13 -14 -26 -22 -29 -19 -3 3 5 14 18 25 33 27 39 24 11 -6z
m460 11 c0 -2 -22 -18 -48 -34 -26 -16 -85 -52 -130 -80 -44 -29 -79 -46 -76
-39 3 8 60 46 127 85 130 76 127 74 127 68z m1226 -44 c-3 -5 -47 -33 -98 -62
-51 -30 -104 -60 -118 -69 -14 -8 -21 -11 -17 -5 13 14 231 152 236 149 1 -2
0 -8 -3 -13z m-1178 -7 c-12 -12 -295 -188 -332 -206 l-41 -21 20 20 c11 12
94 64 185 116 153 89 181 104 168 91z m137 -4 c-37 -33 -427 -269 -453 -273
-17 -2 -29 -2 -26 1 7 7 477 280 484 281 2 0 0 -4 -5 -9z m-655 -56 c-7 -9
-15 -13 -19 -10 -3 3 1 10 9 15 21 14 24 12 10 -5z m1400 -30 c0 -2 -10 -9
-22 -15 -22 -11 -22 -10 -4 4 21 17 26 19 26 11z m298 -37 c-3 -7 -43 -35 -89
-61 -46 -27 -104 -60 -129 -74 -70 -40 -43 -19 86 66 122 82 139 90 132 69z
m-1698 -23 c-7 -9 -15 -13 -19 -10 -3 3 1 10 9 15 21 14 24 12 10 -5z m485
-44 c-27 -25 -258 -162 -268 -158 -6 2 22 23 63 47 41 23 104 60 140 81 66 39
82 46 65 30z m125 -5 c0 -6 -66 -46 -76 -46 -5 0 9 11 31 25 43 26 45 27 45
21z m1080 -16 c-65 -39 -123 -71 -115 -63 22 22 119 82 124 77 3 -3 -1 -10 -9
-14z m10 -65 c0 -2 -15 -12 -32 -20 l-33 -16 25 20 c24 20 40 26 40 16z
m-1250 -19 c0 -2 -53 -38 -119 -79 -79 -50 -117 -69 -114 -58 2 10 53 45 111
79 100 58 122 68 122 58z m1250 -151 c0 -2 -10 -9 -22 -15 -22 -11 -22 -10 -4
4 21 17 26 19 26 11z m-1065 -64 c-6 -5 -79 -52 -164 -105 -134 -84 -181 -108
-181 -92 0 6 339 205 350 206 2 0 0 -4 -5 -9z m355 -5 c0 -11 -298 -194 -323
-198 -15 -3 -25 -3 -22 0 5 5 337 200 343 201 1 1 2 -1 2 -3z m710 -18 c0 -7
-19 -23 -43 -36 l-42 -23 39 36 c44 39 46 40 46 23z m-1430 -3 c0 -2 -10 -9
-22 -15 -22 -11 -22 -10 -4 4 21 17 26 19 26 11z m435 -14 c-27 -23 -268 -171
-273 -166 -9 9 7 21 143 99 126 73 149 86 130 67z m-705 -26 c-7 -9 -15 -13
-19 -10 -3 3 1 10 9 15 21 14 24 12 10 -5z m965 -41 c-44 -33 -166 -106 -171
-102 -3 3 37 31 88 61 93 56 121 70 83 41z m560 8 c-122 -106 -134 -113 -167
-110 -31 3 -28 6 67 60 98 56 119 67 100 50z m-465 -26 c0 -8 -131 -88 -136
-83 -3 3 25 23 63 46 70 42 73 44 73 37z m-1050 -21 c-7 -8 -18 -15 -24 -15
-6 0 -2 7 8 15 25 19 32 19 16 0z m1310 2 c0 -8 -99 -67 -111 -67 -8 0 13 16
46 35 63 36 65 37 65 32z m210 -52 c-7 -8 -17 -15 -23 -15 -6 0 -2 7 9 15 25
19 30 19 14 0z m-206 -55 l298 0 -3 -131 c-4 -124 -5 -132 -28 -150 -23 -19
-45 -19 -760 -17 -816 3 -768 -1 -818 71 -22 32 -28 52 -28 93 0 49 4 57 38
91 l37 38 168 5 c92 3 309 4 482 3 173 -2 449 -3 614 -3z"/>
<path d="M712 229 c-13 -5 -22 -15 -20 -21 4 -10 87 -14 364 -15 198 -2 365 1
373 6 8 5 11 16 8 25 -6 14 -44 16 -354 15 -191 0 -359 -4 -371 -10z"/>
<path d="M1563 223 c-7 -2 -13 -9 -13 -14 0 -15 262 -7 268 9 3 9 -25 12 -120
11 -67 0 -129 -3 -135 -6z"/>
</g>
</svg>
